<svg data-v-423bf9ae="" xmlns="http://www.w3.org/2000/svg" viewBox="0 0 636.9097877186884 180" class="iconAbove"><!----><!----><!----><g data-v-423bf9ae="" id="41bd21e9-e220-403d-81f5-3d33b2c28e29" fill="#12292A" transform="matrix(5.758157347474804,0,0,5.758157347474804,1.2092133273345667,99.15071812081328)"><path d="M7.11 7.45L6.22 7.71L3.98 13.79L2.90 13.92L0.56 7.69L-0.20 7.45L-0.21 6.83L3.09 6.83L3.09 7.48L2.31 7.69L3.70 11.82L5.12 7.71L4.13 7.48L4.13 6.83L7.11 6.83L7.11 7.45ZM9.34 5.73L9.34 5.73Q8.90 5.73 8.58 5.43L8.58 5.43L8.58 5.43Q8.26 5.14 8.26 4.72L8.26 4.72L8.26 4.72Q8.26 4.28 8.58 3.97L8.58 3.97L8.58 3.97Q8.90 3.65 9.34 3.65L9.34 3.65L9.34 3.65Q9.76 3.65 10.07 3.97L10.07 3.97L10.07 3.97Q10.37 4.28 10.37 4.72L10.37 4.72L10.37 4.72Q10.37 5.14 10.07 5.43L10.07 5.43L10.07 5.43Q9.76 5.73 9.34 5.73L9.34 5.73ZM11.30 13.72L7.38 13.72L7.38 13.10L8.53 12.82L8.53 7.94L7.38 7.78L7.38 7.24L9.63 6.71L10.16 6.71L10.16 12.82L11.30 13.10L11.30 13.72ZM14.76 7.56L14.76 7.56Q14.18 7.56 13.85 7.78L13.85 7.78L13.85 7.78Q13.52 8.01 13.52 8.40L13.52 8.40L13.52 8.40Q13.52 8.75 13.70 8.96L13.70 8.96L13.70 8.96Q13.87 9.17 14.29 9.31L14.29 9.31L15.69 9.77L15.69 9.77Q16.48 10.02 16.81 10.46L16.81 10.46L16.81 10.46Q17.15 10.91 17.15 11.69L17.15 11.69L17.15 11.69Q17.15 12.70 16.41 13.28L16.41 13.28L16.41 13.28Q15.68 13.86 14.35 13.86L14.35 13.86L14.35 13.86Q13.83 13.86 13.20 13.77L13.20 13.77L13.20 13.77Q12.57 13.68 12.11 13.51L12.11 13.51L12.28 11.68L12.96 11.68L13.26 12.84L13.26 12.84Q13.76 13.01 14.34 13.01L14.34 13.01L14.34 13.01Q15.02 13.01 15.39 12.75L15.39 12.75L15.39 12.75Q15.75 12.50 15.75 12.01L15.75 12.01L15.75 12.01Q15.75 11.69 15.55 11.52L15.55 11.52L15.55 11.52Q15.36 11.34 14.84 11.16L14.84 11.16L13.54 10.71L13.54 10.71Q12.84 10.46 12.50 10.01L12.50 10.01L12.50 10.01Q12.15 9.56 12.15 8.83L12.15 8.83L12.15 8.83Q12.15 7.83 12.81 7.27L12.81 7.27L12.81 7.27Q13.47 6.71 14.78 6.71L14.78 6.71L14.78 6.71Q15.29 6.71 15.84 6.81L15.84 6.81L15.84 6.81Q16.39 6.92 16.87 7.13L16.87 7.13L16.67 8.79L16.02 8.79L15.72 7.76L15.72 7.76Q15.29 7.56 14.76 7.56L14.76 7.56ZM26.15 13.72L22.40 13.72L22.40 13.15L23.35 12.82L23.35 8.58L23.35 8.58Q23.35 8.23 23.27 8.05L23.27 8.05L23.27 8.05Q23.18 7.87 22.95 7.80L22.95 7.80L22.95 7.80Q22.72 7.73 22.27 7.73L22.27 7.73L22.27 7.73Q21.36 7.73 20.75 7.92L20.75 7.92L20.75 12.82L21.70 13.15L21.70 13.72L17.95 13.72L17.95 13.10L19.11 12.82L19.11 4.75L17.96 4.59L17.96 4.05L20.22 3.50L20.75 3.50L20.75 7.27L20.75 7.27Q21.18 7.06 21.91 6.88L21.91 6.88L21.91 6.88Q22.64 6.71 23.24 6.71L23.24 6.71L23.24 6.71Q24.01 6.71 24.51 7.06L24.51 7.06L24.51 7.06Q25.00 7.42 25.00 8.18L25.00 8.18L25.00 12.82L26.15 13.15L26.15 13.72ZM29.62 7.66L29.62 7.66Q29.04 7.66 28.49 7.84L28.49 7.84L28.17 9.02L27.48 9.02L27.24 7.22L27.24 7.22Q28.60 6.71 30.06 6.71L30.06 6.71L30.06 6.71Q31.15 6.71 31.71 7.07L31.71 7.07L31.71 7.07Q32.27 7.43 32.27 8.37L32.27 8.37L32.27 12.68L33.42 13.02L33.42 13.55L33.42 13.55Q32.52 13.79 31.91 13.79L31.91 13.79L31.91 13.79Q31.47 13.79 31.12 13.59L31.12 13.59L31.12 13.59Q30.77 13.40 30.67 13.03L30.67 13.03L30.67 13.03Q30.10 13.44 29.58 13.65L29.58 13.65L29.58 13.65Q29.06 13.86 28.48 13.86L28.48 13.86L28.48 13.86Q27.73 13.86 27.31 13.38L27.31 13.38L27.31 13.38Q26.88 12.89 26.88 12.14L26.88 12.14L26.88 12.14Q26.88 11.47 27.28 10.90L27.28 10.90L27.28 10.90Q27.68 10.33 28.67 10.14L28.67 10.14L30.63 9.76L30.63 8.71L30.63 8.71Q30.63 8.15 30.41 7.90L30.41 7.90L30.41 7.90Q30.18 7.66 29.62 7.66L29.62 7.66ZM29.58 10.72L29.58 10.72Q29.01 10.85 28.76 11.16L28.76 11.16L28.76 11.16Q28.52 11.47 28.52 11.94L28.52 11.94L28.52 11.94Q28.52 12.82 29.34 12.82L29.34 12.82L29.34 12.82Q29.64 12.82 30.00 12.69L30.00 12.69L30.00 12.69Q30.37 12.56 30.63 12.39L30.63 12.39L30.63 10.50L29.58 10.72ZM37.73 13.72L33.80 13.72L33.80 13.10L34.94 12.82L34.94 4.75L33.80 4.59L33.80 4.05L36.05 3.50L36.58 3.50L36.58 12.82L37.73 13.10L37.73 13.72ZM42.22 7.78L42.22 7.78Q41.61 7.78 41.10 8.02L41.10 8.02L41.10 12.82L42.71 13.12L42.71 13.72L38.32 13.72L38.32 13.13L39.47 12.82L39.47 7.95L38.32 7.78L38.32 7.24L40.50 6.71L41.09 6.71L41.09 7.35L41.09 7.35Q41.57 7.04 42.14 6.85L42.14 6.85L42.14 6.85Q42.71 6.66 43.20 6.66L43.20 6.66L43.20 6.66Q43.50 6.66 43.60 6.68L43.60 6.68L43.34 9.02L42.52 9.02L42.22 7.78ZM47.04 7.66L47.04 7.66Q46.45 7.66 45.91 7.84L45.91 7.84L45.58 9.02L44.90 9.02L44.66 7.22L44.66 7.22Q46.02 6.71 47.47 6.71L47.47 6.71L47.47 6.71Q48.57 6.71 49.13 7.07L49.13 7.07L49.13 7.07Q49.69 7.43 49.69 8.37L49.69 8.37L49.69 12.68L50.83 13.02L50.83 13.55L50.83 13.55Q49.94 13.79 49.32 13.79L49.32 13.79L49.32 13.79Q48.89 13.79 48.54 13.59L48.54 13.59L48.54 13.59Q48.19 13.40 48.09 13.03L48.09 13.03L48.09 13.03Q47.52 13.44 47.00 13.65L47.00 13.65L47.00 13.65Q46.48 13.86 45.89 13.86L45.89 13.86L45.89 13.86Q45.15 13.86 44.72 13.38L44.72 13.38L44.72 13.38Q44.30 12.89 44.30 12.14L44.30 12.14L44.30 12.14Q44.30 11.47 44.70 10.90L44.70 10.90L44.70 10.90Q45.09 10.33 46.09 10.14L46.09 10.14L48.05 9.76L48.05 8.71L48.05 8.71Q48.05 8.15 47.82 7.90L47.82 7.90L47.82 7.90Q47.60 7.66 47.04 7.66L47.04 7.66ZM47.00 10.72L47.00 10.72Q46.42 10.85 46.18 11.16L46.18 11.16L46.18 11.16Q45.93 11.47 45.93 11.94L45.93 11.94L45.93 11.94Q45.93 12.82 46.76 12.82L46.76 12.82L46.76 12.82Q47.05 12.82 47.42 12.69L47.42 12.69L47.42 12.69Q47.78 12.56 48.05 12.39L48.05 12.39L48.05 10.50L47.00 10.72ZM55.50 13.55L55.50 13.55Q55.08 13.68 54.45 13.76L54.45 13.76L54.45 13.76Q53.82 13.85 53.44 13.85L53.44 13.85L53.44 13.85Q52.75 13.85 52.49 13.54L52.49 13.54L52.49 13.54Q52.23 13.23 52.23 12.74L52.23 12.74L52.23 7.74L51.23 7.74L51.23 7.14L52.37 6.68L53.12 5.28L53.86 5.28L53.86 6.83L55.69 6.83L55.69 7.84L53.86 7.73L53.86 12.66L55.50 12.96L55.50 13.55ZM64.36 13.72L60.61 13.72L60.61 13.15L61.56 12.82L61.56 8.58L61.56 8.58Q61.56 8.23 61.47 8.05L61.47 8.05L61.47 8.05Q61.39 7.87 61.16 7.80L61.16 7.80L61.16 7.80Q60.93 7.73 60.48 7.73L60.48 7.73L60.48 7.73Q59.57 7.73 58.95 7.92L58.95 7.92L58.95 12.82L59.91 13.15L59.91 13.72L56.15 13.72L56.15 13.10L57.32 12.82L57.32 4.75L56.17 4.59L56.17 4.05L58.42 3.50L58.95 3.50L58.95 7.27L58.95 7.27Q59.39 7.06 60.12 6.88L60.12 6.88L60.12 6.88Q60.84 6.71 61.45 6.71L61.45 6.71L61.45 6.71Q62.22 6.71 62.71 7.06L62.71 7.06L62.71 7.06Q63.21 7.42 63.21 8.18L63.21 8.18L63.21 12.82L64.36 13.15L64.36 13.72ZM68.38 6.71L68.38 6.71Q70.14 6.71 70.97 7.69L70.97 7.69L70.97 7.69Q71.79 8.68 71.79 10.30L71.79 10.30L71.79 10.30Q71.79 11.89 70.95 12.87L70.95 12.87L70.95 12.87Q70.11 13.86 68.38 13.86L68.38 13.86L68.38 13.86Q66.68 13.86 65.85 12.87L65.85 12.87L65.85 12.87Q65.02 11.87 65.02 10.30L65.02 10.30L65.02 10.30Q65.02 8.68 65.83 7.69L65.83 7.69L65.83 7.69Q66.65 6.71 68.38 6.71L68.38 6.71ZM70.01 10.28L70.01 10.28Q70.01 8.97 69.65 8.26L69.65 8.26L69.65 8.26Q69.29 7.55 68.35 7.55L68.35 7.55L68.35 7.55Q67.47 7.55 67.12 8.26L67.12 8.26L67.12 8.26Q66.78 8.97 66.78 10.28L66.78 10.28L66.78 10.28Q66.78 11.56 67.14 12.29L67.14 12.29L67.14 12.29Q67.51 13.01 68.43 13.01L68.43 13.01L68.43 13.01Q69.34 13.01 69.68 12.29L69.68 12.29L69.68 12.29Q70.01 11.58 70.01 10.28L70.01 10.28ZM76.48 7.78L76.48 7.78Q75.87 7.78 75.36 8.02L75.36 8.02L75.36 12.82L76.97 13.12L76.97 13.72L72.58 13.72L72.58 13.13L73.72 12.82L73.72 7.95L72.58 7.78L72.58 7.24L74.76 6.71L75.35 6.71L75.35 7.35L75.35 7.35Q75.82 7.04 76.40 6.85L76.40 6.85L76.40 6.85Q76.97 6.66 77.46 6.66L77.46 6.66L77.46 6.66Q77.76 6.66 77.85 6.68L77.85 6.68L77.60 9.02L76.78 9.02L76.48 7.78ZM81.75 13.86L81.75 13.86Q80.01 13.86 79.24 12.91L79.24 12.91L79.24 12.91Q78.47 11.96 78.47 10.30L78.47 10.30L78.47 10.30Q78.47 8.44 79.32 7.57L79.32 7.57L79.32 7.57Q80.16 6.71 81.61 6.71L81.61 6.71L81.61 6.71Q83.03 6.71 83.69 7.35L83.69 7.35L83.69 7.35Q84.35 7.99 84.35 9.37L84.35 9.37L84.35 9.37Q84.35 9.84 84.31 10.22L84.31 10.22L80.23 10.22L80.23 10.60L80.23 10.60Q80.23 11.82 80.73 12.37L80.73 12.37L80.73 12.37Q81.23 12.92 82.18 12.92L82.18 12.92L82.18 12.92Q83.02 12.92 84.17 12.60L84.17 12.60L84.28 13.15L84.28 13.15Q83.22 13.86 81.75 13.86L81.75 13.86ZM80.26 9.55L82.67 9.41L82.67 9.10L82.67 9.10Q82.67 8.34 82.45 7.96L82.45 7.96L82.45 7.96Q82.24 7.57 81.68 7.57L81.68 7.57L81.68 7.57Q80.91 7.57 80.60 8.04L80.60 8.04L80.60 8.04Q80.30 8.51 80.26 9.55L80.26 9.55ZM88.12 13.89L88.12 13.89Q86.62 13.89 86.00 13.34L86.00 13.34L86.00 13.34Q85.39 12.78 85.39 11.80L85.39 11.80L85.39 11.80Q85.39 11.10 85.81 10.47L85.81 10.47L85.81 10.47Q86.24 9.84 87.09 9.37L87.09 9.37L87.09 9.37Q86.38 8.92 86.01 8.39L86.01 8.39L86.01 8.39Q85.64 7.87 85.64 7.10L85.64 7.10L85.64 7.10Q85.64 6.15 86.34 5.54L86.34 5.54L86.34 5.54Q87.04 4.93 88.40 4.93L88.40 4.93L88.40 4.93Q89.81 4.93 90.40 5.45L90.40 5.45L90.40 5.45Q91.00 5.96 91.00 6.80L91.00 6.80L91.00 6.80Q91.00 7.42 90.61 8.00L90.61 8.00L90.61 8.00Q90.23 8.58 89.26 9.02L89.26 9.02L89.26 9.02Q89.88 9.34 90.26 9.63L90.26 9.63L90.26 9.63Q90.65 9.93 90.89 10.35L90.89 10.35L90.89 10.35Q91.13 10.78 91.13 11.38L91.13 11.38L91.13 11.38Q91.13 12.52 90.35 13.20L90.35 13.20L90.35 13.20Q89.57 13.89 88.12 13.89L88.12 13.89ZM88.44 8.61L88.44 8.61Q89.04 8.26 89.33 7.89L89.33 7.89L89.33 7.89Q89.61 7.52 89.61 7.03L89.61 7.03L89.61 7.03Q89.61 6.40 89.31 6.06L89.31 6.06L89.31 6.06Q89.00 5.73 88.40 5.73L88.40 5.73L88.40 5.73Q87.79 5.73 87.44 6.03L87.44 6.03L87.44 6.03Q87.08 6.34 87.08 6.96L87.08 6.96L87.08 6.96Q87.08 7.88 88.44 8.61L88.44 8.61ZM88.12 13.08L88.12 13.08Q88.80 13.08 89.22 12.73L89.22 12.73L89.22 12.73Q89.64 12.38 89.64 11.70L89.64 11.70L89.64 11.70Q89.64 11.14 89.31 10.77L89.31 10.77L89.31 10.77Q88.97 10.39 88.28 10.04L88.28 10.04L87.82 9.79L87.82 9.79Q87.39 10.12 87.09 10.65L87.09 10.65L87.09 10.65Q86.80 11.17 86.80 11.68L86.80 11.68L86.80 11.68Q86.80 12.39 87.16 12.73L87.16 12.73L87.16 12.73Q87.51 13.08 88.12 13.08L88.12 13.08ZM95.63 6.71L95.63 6.71Q97.40 6.71 98.22 7.69L98.22 7.69L98.22 7.69Q99.05 8.68 99.05 10.30L99.05 10.30L99.05 10.30Q99.05 11.89 98.21 12.87L98.21 12.87L98.21 12.87Q97.37 13.86 95.63 13.86L95.63 13.86L95.63 13.86Q93.94 13.86 93.11 12.87L93.11 12.87L93.11 12.87Q92.27 11.87 92.27 10.30L92.27 10.30L92.27 10.30Q92.27 8.68 93.09 7.69L93.09 7.69L93.09 7.69Q93.91 6.71 95.63 6.71L95.63 6.71ZM97.27 10.28L97.27 10.28Q97.27 8.97 96.91 8.26L96.91 8.26L96.91 8.26Q96.54 7.55 95.61 7.55L95.61 7.55L95.61 7.55Q94.72 7.55 94.38 8.26L94.38 8.26L94.38 8.26Q94.04 8.97 94.04 10.28L94.04 10.28L94.04 10.28Q94.04 11.56 94.40 12.29L94.40 12.29L94.40 12.29Q94.77 13.01 95.69 13.01L95.69 13.01L95.69 13.01Q96.60 13.01 96.94 12.29L96.94 12.29L96.94 12.29Q97.27 11.58 97.27 10.28L97.27 10.28ZM103.05 13.86L103.05 13.86Q101.44 13.86 100.67 12.87L100.67 12.87L100.67 12.87Q99.90 11.89 99.90 10.30L99.90 10.30L99.90 10.30Q99.90 8.68 100.67 7.69L100.67 7.69L100.67 7.69Q101.43 6.71 103.05 6.71L103.05 6.71L103.05 6.71Q103.73 6.71 104.29 6.81L104.29 6.81L104.29 6.81Q104.85 6.92 105.43 7.14L105.43 7.14L105.17 9.02L104.47 9.02L104.16 7.74L104.16 7.74Q103.70 7.56 103.19 7.56L103.19 7.56L103.19 7.56Q102.31 7.56 101.99 8.26L101.99 8.26L101.99 8.26Q101.67 8.96 101.67 10.28L101.67 10.28L101.67 10.28Q101.67 11.26 101.83 11.83L101.83 11.83L101.83 11.83Q101.99 12.40 102.35 12.66L102.35 12.66L102.35 12.66Q102.70 12.91 103.31 12.91L103.31 12.91L103.31 12.91Q104.33 12.91 105.36 12.59L105.36 12.59L105.46 13.15L105.46 13.15Q104.96 13.48 104.34 13.67L104.34 13.67L104.34 13.67Q103.73 13.86 103.05 13.86L103.05 13.86ZM110.21 13.55L110.21 13.55Q109.79 13.68 109.16 13.76L109.16 13.76L109.16 13.76Q108.53 13.85 108.15 13.85L108.15 13.85L108.15 13.85Q107.46 13.85 107.20 13.54L107.20 13.54L107.20 13.54Q106.95 13.23 106.95 12.74L106.95 12.74L106.95 7.74L105.94 7.74L105.94 7.14L107.09 6.68L107.83 5.28L108.57 5.28L108.57 6.83L110.40 6.83L110.40 7.84L108.57 7.73L108.57 12.66L110.21 12.96L110.21 13.55Z"></path></g><defs data-v-423bf9ae=""><linearGradient data-v-423bf9ae="" gradientTransform="rotate(25)" id="d08395a6-9676-4670-ac3c-cc718be76427" x1="0%" y1="0%" x2="100%" y2="0%"><stop data-v-423bf9ae="" offset="0%" style="stop-color: rgb(18, 38, 99); stop-opacity: 1;"></stop><stop data-v-423bf9ae="" offset="100%" style="stop-color: rgb(93, 215, 173); stop-opacity: 1;"></stop></linearGradient></defs><g data-v-423bf9ae="" id="6bd6056e-3879-4530-bc92-132402484f49" transform="matrix(1.0868111504448785,0,0,1.0868111504448785,263.744749553976,-0.23894260335429607)" stroke="none" fill="url(#d08395a6-9676-4670-ac3c-cc718be76427)"><g clip-rule="evenodd"><path d="M12.983 10.59l17.018 88.223-5.872-59.049 29.021-1.892-.054-9.883L64.549 1 53.622 18.977z"></path><path d="M59.389 54.548l5.16-53.541-8.74 39.716-19.612 1.045 1.57 20.462-7.766 36.583 12.057-39.899z"></path><path d="M62.8 67.182l.549-10.453-15.979 3.755-.032 11.797-17.337 26.532 21.68-27.616zM65.711 62.394l14.841-4.731 1.509-12.532-15.899 2.095zM72.07 44.502l10.988-1.417 1.581-10.278-8.079-.373L64.549 1l8.43 30.967z"></path><path d="M87.413 31.294l1.256-9.506-9.544-2.694L64.549 1l14.483 22.437-.422 7z"></path></g></g><!----></svg>